<svg version="1.1" id="Layer_1" xmlns="http://www.w3.org/2000/svg" xmlns:xlink="http://www.w3.org/1999/xlink" x="0px" y="0px"
	 width="100%" viewBox="0 0 1024 1024" enable-background="new 0 0 1024 1024" xml:space="preserve">
<path fill="#0D146B" opacity="1.000000" stroke="none" 
	d="
M300.323914,595.818298 
	C298.820404,584.312805 297.199310,573.266846 295.986359,562.176208 
	C294.688446,550.308594 302.064606,540.962036 313.966309,539.337708 
	C334.757050,536.500061 355.584717,533.933655 376.381744,531.140686 
	C414.837799,525.976196 453.279022,520.701355 491.733704,515.526672 
	C527.881836,510.662354 564.046143,505.917480 600.190796,501.027893 
	C632.371521,496.674591 664.529968,492.156769 696.707825,487.782318 
	C727.389954,483.611176 758.070862,479.424805 788.779968,475.459412 
	C802.795410,473.649658 811.779724,480.615875 813.823669,494.954926 
	C817.653870,521.825867 821.106140,548.750427 824.812744,575.639282 
	C827.268494,593.454285 830.012939,611.229797 832.412964,629.052002 
	C835.634521,652.975708 838.619690,676.931152 841.760742,700.865845 
	C844.252258,719.851624 846.969543,738.808960 849.313904,757.812500 
	C850.979614,771.315247 844.017578,780.214355 830.354492,782.185730 
	C802.174194,786.251770 773.971375,790.162903 745.769226,794.075317 
	C694.794739,801.147034 643.811340,808.153992 592.836731,815.224670 
	C558.025818,820.053284 523.231140,824.999146 488.415558,829.793213 
	C444.360443,835.859558 400.300446,841.891907 356.223145,847.793945 
	C342.696594,849.605164 332.566833,842.099915 330.689789,828.587463 
	C327.183777,803.348572 324.159302,778.043213 320.843018,752.777527 
	C317.418365,726.686157 313.834320,700.615540 310.418396,674.523010 
	C308.452148,659.503601 306.722015,644.453430 304.808258,629.426941 
	C303.399048,618.362427 301.864594,607.313843 300.323914,595.818298 
M728.230408,538.191467 
	C725.996643,533.546143 723.241821,529.065857 721.701782,524.200867 
	C720.566528,520.614929 718.939514,519.926453 715.657654,520.342407 
	C691.382996,523.419312 667.083984,526.305603 642.817627,529.445068 
	C618.709595,532.563904 594.636780,535.953796 570.537109,539.138000 
	C553.201660,541.428528 535.837524,543.501892 518.504089,545.807190 
	C495.722504,548.837036 472.964935,552.047241 450.184906,555.089294 
	C433.350220,557.337463 416.512939,559.586121 399.641479,561.527710 
	C393.929169,562.185120 391.602478,564.377441 391.120453,570.470276 
	C389.224335,594.438599 369.073578,621.102905 343.297333,627.352112 
	C339.719696,628.219421 338.989105,630.108032 339.460205,633.510315 
	C342.178833,653.144653 344.710602,672.804810 347.345367,692.450867 
	C349.758270,710.442383 352.273651,728.420410 354.613617,746.421265 
	C355.026215,749.595459 356.094086,751.010437 359.583618,751.091797 
	C363.704742,751.187927 367.868011,751.895569 371.904358,752.815002 
	C397.829559,758.720825 415.552368,773.900696 423.603210,799.521667 
	C424.811798,803.367859 426.387512,804.545471 430.278595,803.982605 
	C449.557922,801.193787 468.866974,798.611145 488.162079,795.930542 
	C531.045105,789.972900 573.929871,784.027222 616.806519,778.023560 
	C643.022339,774.352783 669.225769,770.593628 695.432007,766.854553 
	C713.238342,764.313843 731.031372,761.677185 748.851379,759.237183 
	C752.019836,758.803345 752.872498,757.510132 752.883850,754.385254 
	C752.903748,748.916321 752.564941,743.155334 754.098816,738.032410 
	C761.160889,714.446594 776.751465,698.456970 799.711060,689.889099 
	C803.909180,688.322388 804.868225,686.516785 804.303711,682.375793 
	C799.444702,646.729492 794.686768,611.068726 790.109131,575.385376 
	C789.535278,570.911987 787.931763,569.450012 783.340698,568.876465 
	C761.216309,566.112671 742.125854,557.445801 728.230408,538.191467 
z"/>
<path fill="#0D146B" opacity="1.000000" stroke="none" 
	d="
M721.070801,405.117554 
	C718.582825,420.365906 716.177795,435.628937 713.480591,450.840149 
	C713.206360,452.386566 711.331604,454.628571 709.935059,454.845673 
	C695.290039,457.122192 680.591797,459.057922 665.903870,461.055267 
	C665.281189,461.139923 664.615112,460.905396 663.567688,460.766205 
	C663.697144,459.566925 663.622742,458.437256 663.954773,457.443329 
	C676.271606,420.572968 679.007996,382.971588 673.530457,344.522369 
	C664.858582,283.650208 635.458191,234.370819 589.668762,194.505081 
	C562.682922,171.010345 531.530212,154.548340 496.839142,145.453705 
	C455.179779,134.532257 413.204620,133.945496 371.143341,143.342529 
	C342.241638,149.799561 315.263672,161.171082 290.690033,177.496841 
	C258.639679,198.789825 232.659302,226.165451 213.110291,259.481750 
	C187.249344,303.555054 178.517227,351.282776 182.757187,401.740570 
	C185.406967,433.274384 193.765259,463.244507 207.831375,491.641785 
	C222.832703,521.927185 242.711807,548.453369 268.296265,570.574890 
	C272.370972,574.098022 274.339783,577.977173 274.925568,583.319946 
	C276.504547,597.720337 278.638489,612.059570 280.504639,626.429199 
	C280.778107,628.535034 280.792236,630.674500 280.993988,633.869202 
	C278.241699,632.583679 276.151428,631.827820 274.284149,630.702148 
	C244.891190,612.983276 219.916367,590.315613 198.775116,563.327209 
	C184.343307,544.903931 171.565155,525.403442 162.023697,504.035675 
	C150.850082,479.012756 143.082855,452.895081 139.255722,425.666779 
	C134.172592,389.502472 135.457672,353.603058 142.911926,317.849304 
	C149.094254,288.196381 160.861542,260.912506 175.804703,234.668701 
	C193.441833,203.693649 216.313126,177.503387 244.097855,155.387268 
	C265.604828,138.268097 288.971710,124.191360 314.423828,113.939278 
	C358.142883,96.329315 403.572876,89.178223 450.720856,92.718445 
	C493.400848,95.923187 533.450378,107.598206 571.061401,127.956215 
	C612.138184,150.190216 645.409119,180.963547 671.642639,219.466522 
	C684.628723,238.526154 695.629761,258.717316 703.368225,280.442291 
	C712.814880,306.962830 720.032166,334.074860 721.018372,363.372498 
	C721.002686,377.893890 721.036682,391.505737 721.070801,405.117554 
z"/>
<path fill="#0D146B" opacity="1.000000" stroke="none" 
	d="
M451.260376,292.000427 
	C451.221161,322.655884 451.063751,352.811981 451.223297,382.966370 
	C451.266327,391.096161 448.950623,397.757050 443.237396,403.681213 
	C416.007294,431.916809 389.013031,460.379700 361.827271,488.658325 
	C353.237793,497.593048 338.823029,497.583191 329.798248,489.191132 
	C321.376404,481.359680 322.459930,466.150665 329.859100,458.528717 
	C353.488373,434.187927 376.554932,409.301147 399.869232,384.654053 
	C403.743439,380.558380 405.979919,376.290985 405.945557,370.157043 
	C405.674194,321.676636 405.833313,273.193939 405.813171,224.711945 
	C405.809937,216.920273 406.325592,209.336685 411.988220,203.211639 
	C418.351746,196.328476 426.197388,193.990143 435.119293,196.582382 
	C444.022797,199.169312 449.706024,205.164520 450.953064,214.556046 
	C451.519379,218.821075 451.330261,223.198212 451.331238,227.524521 
	C451.335999,248.849823 451.289612,270.175140 451.260376,292.000427 
z"/>
<path fill="#002653" opacity="0.000000" stroke="none" 
	d="
M721.905029,367.658203 
	C722.443481,370.659485 723.472351,373.668488 723.425232,376.660553 
	C723.301208,384.527557 722.709045,392.387207 722.095703,400.127502 
	C721.893738,389.222870 721.899414,378.440521 721.905029,367.658203 
z"/>
<path fill="#337B8B" opacity="0.000000" stroke="none" 
	d="
M721.795471,367.124695 
	C721.899414,378.440521 721.893738,389.222870 721.919006,400.465759 
	C721.715088,402.154968 721.480347,403.383667 721.158142,404.864929 
	C721.036682,391.505737 721.002686,377.893890 721.016602,363.865326 
	C721.064514,363.448578 721.299316,363.826752 721.383911,364.055298 
	C721.468445,364.283844 721.547119,364.440857 721.547119,364.440857 
	C721.593323,365.157623 721.639587,365.874390 721.795471,367.124695 
z"/>
<path fill="#002653" opacity="0.000000" stroke="none" 
	d="
M721.643677,364.414856 
	C721.547119,364.440857 721.468445,364.283844 721.493164,364.249176 
	C721.609253,364.150665 721.693726,364.062988 721.795166,364.033630 
	C721.841736,364.020111 721.921387,364.120880 721.986084,364.169800 
	C721.904114,364.242828 721.822144,364.315857 721.643677,364.414856 
z"/>
<path fill="#070E71" opacity="0.000000" stroke="none" 
	d="
M728.433960,538.493408 
	C742.125854,557.445801 761.216309,566.112671 783.340698,568.876465 
	C787.931763,569.450012 789.535278,570.911987 790.109131,575.385376 
	C794.686768,611.068726 799.444702,646.729492 804.303711,682.375793 
	C804.868225,686.516785 803.909180,688.322388 799.711060,689.889099 
	C776.751465,698.456970 761.160889,714.446594 754.098816,738.032410 
	C752.564941,743.155334 752.903748,748.916321 752.883850,754.385254 
	C752.872498,757.510132 752.019836,758.803345 748.851379,759.237183 
	C731.031372,761.677185 713.238342,764.313843 695.432007,766.854553 
	C669.225769,770.593628 643.022339,774.352783 616.806519,778.023560 
	C573.929871,784.027222 531.045105,789.972900 488.162079,795.930542 
	C468.866974,798.611145 449.557922,801.193787 430.278595,803.982605 
	C426.387512,804.545471 424.811798,803.367859 423.603210,799.521667 
	C415.552368,773.900696 397.829559,758.720825 371.904358,752.815002 
	C367.868011,751.895569 363.704742,751.187927 359.583618,751.091797 
	C356.094086,751.010437 355.026215,749.595459 354.613617,746.421265 
	C352.273651,728.420410 349.758270,710.442383 347.345367,692.450867 
	C344.710602,672.804810 342.178833,653.144653 339.460205,633.510315 
	C338.989105,630.108032 339.719696,628.219421 343.297333,627.352112 
	C369.073578,621.102905 389.224335,594.438599 391.120453,570.470276 
	C391.602478,564.377441 393.929169,562.185120 399.641479,561.527710 
	C416.512939,559.586121 433.350220,557.337463 450.184906,555.089294 
	C472.964935,552.047241 495.722504,548.837036 518.504089,545.807190 
	C535.837524,543.501892 553.201660,541.428528 570.537109,539.138000 
	C594.636780,535.953796 618.709595,532.563904 642.817627,529.445068 
	C667.083984,526.305603 691.382996,523.419312 715.657654,520.342407 
	C718.939514,519.926453 720.566528,520.614929 721.701782,524.200867 
	C723.241821,529.065857 725.996643,533.546143 728.433960,538.493408 
M644.340820,712.758179 
	C645.205505,706.058594 647.378052,699.219116 646.679077,692.686890 
	C644.893250,675.995728 636.017883,663.826538 620.521729,656.545959 
	C609.876831,651.544678 598.605164,649.875122 587.112000,648.976318 
	C584.169739,648.746155 581.949768,648.119934 581.485291,644.672546 
	C580.018555,633.785950 578.558228,622.896118 576.863586,612.043762 
	C576.085327,607.060181 578.520508,606.402710 582.534607,606.884705 
	C590.002075,607.781372 594.517700,612.728760 598.917786,618.127014 
	C600.155029,619.644958 602.654419,621.371582 604.285339,621.120605 
	C612.010681,619.931641 619.621643,618.019348 627.302551,616.513672 
	C631.093811,615.770508 631.710815,613.576843 629.746826,610.856201 
	C625.302002,604.699036 621.177734,598.110107 615.770569,592.890747 
	C605.412415,582.892273 591.953186,580.027710 578.055725,579.346130 
	C574.020020,579.148132 571.814880,578.047241 571.463501,573.815308 
	C571.188416,570.502747 570.283386,567.239380 570.054993,563.926819 
	C569.744873,559.430115 567.469849,558.352905 563.384888,559.118530 
	C558.811096,559.975769 554.186218,560.587036 549.564941,561.153625 
	C546.750732,561.498596 545.883240,563.008240 546.293640,565.609741 
	C546.916504,569.558044 547.234924,573.580505 548.202576,577.441101 
	C549.200562,581.422791 547.782654,583.066528 544.056824,584.276367 
	C533.992188,587.544556 524.832031,592.554199 516.860535,599.627258 
	C497.279358,617.001587 500.407654,650.744995 522.585510,664.826111 
	C533.612671,671.827515 545.800720,673.591064 558.288147,674.614197 
	C561.422485,674.871094 563.186768,675.774536 563.622742,679.117126 
	C565.259949,691.668152 567.002441,704.206238 568.817383,716.732910 
	C569.338745,720.331299 568.040283,721.508545 564.480286,721.250977 
	C554.902222,720.557861 549.996399,713.572021 545.466309,706.670044 
	C543.367554,703.472412 541.434753,702.803589 538.185364,703.386597 
	C531.308533,704.620300 524.416870,705.772888 517.525940,706.926819 
	C508.264191,708.477783 508.575989,708.293579 512.906494,716.236694 
	C524.414856,737.345520 543.265564,746.020874 566.028503,748.214417 
	C573.865051,748.969604 573.882812,748.785583 574.865723,756.396362 
	C576.247986,767.100525 576.247986,767.100586 586.762146,765.243530 
	C598.365173,763.194031 598.561584,763.163513 596.759338,751.530701 
	C596.082764,747.163513 597.477722,745.773743 601.580566,744.835876 
	C620.226013,740.573669 635.545593,731.581360 644.340820,712.758179 
z"/>
<path fill="#0D146B" opacity="1.000000" stroke="none" 
	d="
M644.193237,713.117004 
	C635.545593,731.581360 620.226013,740.573669 601.580566,744.835876 
	C597.477722,745.773743 596.082764,747.163513 596.759338,751.530701 
	C598.561584,763.163513 598.365173,763.194031 586.762146,765.243530 
	C576.247986,767.100586 576.247986,767.100525 574.865723,756.396362 
	C573.882812,748.785583 573.865051,748.969604 566.028503,748.214417 
	C543.265564,746.020874 524.414856,737.345520 512.906494,716.236694 
	C508.575989,708.293579 508.264191,708.477783 517.525940,706.926819 
	C524.416870,705.772888 531.308533,704.620300 538.185364,703.386597 
	C541.434753,702.803589 543.367554,703.472412 545.466309,706.670044 
	C549.996399,713.572021 554.902222,720.557861 564.480286,721.250977 
	C568.040283,721.508545 569.338745,720.331299 568.817383,716.732910 
	C567.002441,704.206238 565.259949,691.668152 563.622742,679.117126 
	C563.186768,675.774536 561.422485,674.871094 558.288147,674.614197 
	C545.800720,673.591064 533.612671,671.827515 522.585510,664.826111 
	C500.407654,650.744995 497.279358,617.001587 516.860535,599.627258 
	C524.832031,592.554199 533.992188,587.544556 544.056824,584.276367 
	C547.782654,583.066528 549.200562,581.422791 548.202576,577.441101 
	C547.234924,573.580505 546.916504,569.558044 546.293640,565.609741 
	C545.883240,563.008240 546.750732,561.498596 549.564941,561.153625 
	C554.186218,560.587036 558.811096,559.975769 563.384888,559.118530 
	C567.469849,558.352905 569.744873,559.430115 570.054993,563.926819 
	C570.283386,567.239380 571.188416,570.502747 571.463501,573.815308 
	C571.814880,578.047241 574.020020,579.148132 578.055725,579.346130 
	C591.953186,580.027710 605.412415,582.892273 615.770569,592.890747 
	C621.177734,598.110107 625.302002,604.699036 629.746826,610.856201 
	C631.710815,613.576843 631.093811,615.770508 627.302551,616.513672 
	C619.621643,618.019348 612.010681,619.931641 604.285339,621.120605 
	C602.654419,621.371582 600.155029,619.644958 598.917786,618.127014 
	C594.517700,612.728760 590.002075,607.781372 582.534607,606.884705 
	C578.520508,606.402710 576.085327,607.060181 576.863586,612.043762 
	C578.558228,622.896118 580.018555,633.785950 581.485291,644.672546 
	C581.949768,648.119934 584.169739,648.746155 587.112000,648.976318 
	C598.605164,649.875122 609.876831,651.544678 620.521729,656.545959 
	C636.017883,663.826538 644.893250,675.995728 646.679077,692.686890 
	C647.378052,699.219116 645.205505,706.058594 644.193237,713.117004 
M611.266479,688.374817 
	C606.145081,681.147217 598.269226,678.995850 590.295288,677.137329 
	C587.058350,676.382874 586.178833,678.197937 586.646301,681.144958 
	C588.519043,692.953735 590.383606,704.764160 592.170471,716.586182 
	C592.696472,720.066589 594.511353,720.651428 597.407654,719.310974 
	C600.113770,718.058472 602.929260,716.978149 605.472534,715.449280 
	C615.431030,709.462769 617.866272,698.988708 611.266479,688.374817 
M554.212402,613.499023 
	C553.776123,612.145569 553.339844,610.792114 552.466431,608.082642 
	C547.543091,611.387878 542.819092,613.641479 539.298950,617.115051 
	C532.146362,624.173279 533.787109,635.971863 542.415344,640.517578 
	C546.286987,642.557312 550.779419,643.539917 555.091614,644.583130 
	C558.448975,645.395447 559.971924,644.139771 559.155396,640.237122 
	C557.354309,631.629150 555.944092,622.939270 554.212402,613.499023 
z"/>
<path fill="#07136B" opacity="0.000000" stroke="none" 
	d="
M611.530457,688.635742 
	C617.866272,698.988708 615.431030,709.462769 605.472534,715.449280 
	C602.929260,716.978149 600.113770,718.058472 597.407654,719.310974 
	C594.511353,720.651428 592.696472,720.066589 592.170471,716.586182 
	C590.383606,704.764160 588.519043,692.953735 586.646301,681.144958 
	C586.178833,678.197937 587.058350,676.382874 590.295288,677.137329 
	C598.269226,678.995850 606.145081,681.147217 611.530457,688.635742 
z"/>
<path fill="#07156A" opacity="0.000000" stroke="none" 
	d="
M554.293457,613.890930 
	C555.944092,622.939270 557.354309,631.629150 559.155396,640.237122 
	C559.971924,644.139771 558.448975,645.395447 555.091614,644.583130 
	C550.779419,643.539917 546.286987,642.557312 542.415344,640.517578 
	C533.787109,635.971863 532.146362,624.173279 539.298950,617.115051 
	C542.819092,613.641479 547.543091,611.387878 552.466431,608.082642 
	C553.339844,610.792114 553.776123,612.145569 554.293457,613.890930 
z"/>
</svg>